#!OML:ASF I:\Actors\actors\Patient Classification 2\Patient 1\Session 1\actor1.ASF
:FULLY-SPECIFIED
:DEGREES
250
root -0.811779 18.7597 5.07257 3.06982 -0.254751 -3.40775
lowerback 4.35923 1.87904 -4.35163
upperback 0.679676 2.23888 -2.95538
thorax -1.79261 1.13487 -0.734254
lowerneck -12.7002 0.187109 0.212471
upperneck 36.1812 -1.18804 4.08176
head 14.6393 0.0746085 1.46095
rclavicle 1.59028e-014 1.59028e-014
rhumerus 39.5662 59.6571 -15.9845
rradius 97.6186
rwrist 0.0180173
rhand 6.70626 -50.2108
rfingers 7.12502
rthumb 31.996 -77.4175
lclavicle 1.59028e-014 1.59028e-014
lhumerus 9.01755 -47.8933 49.3686
lradius 82.7645
lwrist 44.2782
lhand 1.76364 -25.3337
lfingers 7.12502
lthumb 27.2785 2.71323
rfemur 0 0 0
rtibia 0
rfoot 0 0
rtoes 0
lfemur -8.36462 -7.95378 -9.78816
ltibia 22.0667
lfoot -22.252 16.6329
ltoes -55.1348
251
root -0.81314 18.7599 5.07176 3.08039 -0.288928 -3.39527
lowerback 4.32187 1.85885 -4.37068
upperback 0.702752 2.21224 -3.09309
thorax -1.74268 1.12057 -0.86183
lowerneck -12.6968 0.198777 0.281855
upperneck 36.3228 -1.21642 4.13773
head 14.7074 0.0796287 1.47068
rclavicle -2.66371e-014 -6.36111e-015
rhumerus 40.0514 59.9647 -15.3363
rradius 97.6063
rwrist 0.119365
rhand 6.6909 -50.2271
rfingers 7.12502
rthumb 31.9814 -77.4368
lclavicle -2.66371e-014 -6.36111e-015
lhumerus 9.01179 -47.7637 49.2848
lradius 82.7263
lwrist 44.0996
lhand 1.80131 -25.2428
lfingers 7.12502
lthumb 27.3146 2.79842
rfemur 0 0 0
rtibia 0
rfoot 0 0
rtoes 0
lfemur -8.36444 -7.90941 -9.79846
ltibia 22.0563
lfoot -22.2288 16.631
ltoes -55.1727
252
root -0.814794 18.7595 5.06952 3.06923 -0.388473 -3.3718
lowerback 4.26724 1.87457 -4.44536
upperback 0.747704 2.2336 -3.2088
thorax -1.66437 1.12996 -0.937671
lowerneck -12.6318 0.199598 0.325781
upperneck 36.3549 -1.24757 4.19099
head 14.7093 0.0782517 1.4802
rclavicle 3.26007e-014 1.59028e-014
rhumerus 39.6869 59.9199 -15.8951
rradius 97.3287
rwrist 0.423222
rhand 6.27117 -50.6631
rfingers 7.12502
rthumb 31.5817 -77.952
lclavicle 3.26007e-014 1.59028e-014
lhumerus 9.12505 -47.6661 49.181
lradius 82.6536
lwrist 44.083
lhand 1.80619 -25.2132
lfingers 7.12502
lthumb 27.3192 2.82737
rfemur 0 0 0
rtibia 0
rfoot 0 0
rtoes 0
lfemur -8.33372 -7.80621 -9.82344
ltibia 22.0508
lfoot -22.2179 16.6145
ltoes -55.1716
253
root -0.81602 18.7586 5.06738 3.04388 -0.502677 -3.38317
lowerback 4.17912 1.91019 -4.51339
upperback 0.826383 2.28715 -3.26869
thorax -1.53504 1.15447 -0.959524
lowerneck -12.5929 0.195805 0.376661
upperneck 36.3521 -1.25134 4.14891
head 14.6986 0.0769683 1.45253
rclavicle -2.96189e-014 7.95139e-015
rhumerus 38.7903 59.524 -17.1946
rradius 96.8182
rwrist 0.713725
rhand 5.24951 -51.7441
rfingers 7.12502
rthumb 30.6079 -79.2195
lclavicle -2.96189e-014 7.95139e-015
lhumerus 9.29044 -47.544 49.1422
lradius 82.5978
lwrist 44.1388
lhand 1.77376 -25.1441
lfingers 7.12502
lthumb 27.2882 2.90131
rfemur 0 0 0
rtibia 0
rfoot 0 0
rtoes 0
lfemur -8.28027 -7.82699 -9.8204
ltibia 22.0547
lfoot -22.2905 16.6808
ltoes -55.0816
254
root -0.815433 18.7582 5.0645 3.00913 -0.574944 -3.42877
lowerback 4.14838 1.93539 -4.60229
upperback 0.895576 2.32313 -3.22855
thorax -1.45227 1.17098 -0.868088
lowerneck -12.627 0.189054 0.33753
upperneck 36.4178 -1.2497 4.13978
head 14.7375 0.0717736 1.45785
rclavicle 1.5704e-014 -1.74931e-014
rhumerus 37.5718 58.943 -19.0104
rradius 95.9532
rwrist 1.17796
rhand 3.66404 -51.9015
rfingers 7.12502
rthumb 29.0949 -79.6489
lclavicle 1.5704e-014 -1.74931e-014
lhumerus 9.29385 -47.3481 49.3861
lradius 82.5706
lwrist 44.0858
lhand 1.70608 -25.0794
lfingers 7.12502
lthumb 27.2235 2.97617
rfemur 0 0 0
rtibia 0
rfoot 0 0
rtoes 0
lfemur -8.23531 -7.88351 -9.78607
ltibia 22.0686
lfoot -22.3326 16.7655
ltoes -55.0445
255
root -0.813745 18.7576 5.06122 2.94827 -0.615263 -3.49032
lowerback 4.20102 1.94552 -4.72265
upperback 0.942389 2.33165 -3.11064
thorax -1.44327 1.17503 -0.681306
lowerneck -12.6746 0.180359 0.23413
upperneck 36.5117 -1.23718 4.13959
head 14.7928 0.0640535 1.48096
rclavicle -1.59028e-015 -2.38542e-014
rhumerus 36.2957 58.2665 -21.1097
rradius 94.8157
rwrist 1.77635
rhand 2.01129 -50.9567
rfingers 7.12502
rthumb 27.5154 -78.9662
lclavicle -1.59028e-015 -2.38542e-014
lhumerus 9.17999 -47.1463 49.7889
lradius 82.5322
lwrist 44.007
lhand 1.54827 -25.0772
lfingers 7.12502
lthumb 27.0725 3.00198
rfemur 0 0 0
rtibia 0
rfoot 0 0
rtoes 0
lfemur -8.17207 -8.01757 -9.74375
ltibia 22.0839
lfoot -22.4019 16.8948
ltoes -55.0302
256
root -0.812597 18.7572 5.05833 2.93686 -0.713805 -3.54919
lowerback 4.19879 1.96488 -4.76873
upperback 0.953761 2.35702 -3.04449
thorax -1.4355 1.18758 -0.588806
lowerneck -12.6826 0.184435 0.314845
upperneck 36.577 -1.19899 3.9813
head 14.8227 0.0705216 1.40822
rclavicle 1.11319e-014 2.06736e-014
rhumerus 35.0279 57.473 -23.6042
rradius 93.4505
rwrist 2.72077
rhand 0.663545 -50.0037
rfingers 7.12502
rthumb 26.2258 -78.2116
lclavicle 1.11319e-014 2.06736e-014
lhumerus 9.08726 -47.0114 50.0674
lradius 82.4952
lwrist 43.9777
lhand 1.42259 -25.1115
lfingers 7.12502
lthumb 26.9522 2.98627
rfemur 0 0 0
rtibia 0
rfoot 0 0
rtoes 0
lfemur -8.13572 -8.15549 -9.70083
ltibia 22.0855
lfoot -22.5147 17.0742
ltoes -55.0081
257
root -0.811968 18.7581 5.05602 2.98113 -0.904532 -3.53166
lowerback 4.15264 2.01372 -4.87401
upperback 0.916502 2.4191 -3.01046
thorax -1.45543 1.21946 -0.498177
lowerneck -12.6377 0.209089 0.547078
upperneck 36.5911 -1.12582 3.70053
head 14.8137 0.0954826 1.26126
rclavicle -6.95746e-015 4.29375e-014
rhumerus 34.0248 56.7577 -26.1051
rradius 92.1382
rwrist 3.97444
rhand -0.878898 -50.1562
rfingers 7.12502
rthumb 24.7483 -78.5752
lclavicle -6.95746e-015 4.29375e-014
lhumerus 8.87971 -46.917 50.3858
lradius 82.5114
lwrist 43.9764
lhand 1.36624 -25.1363
lfingers 7.12502
lthumb 26.8983 2.96985
rfemur 0 0 0
rtibia 0
rfoot 0 0
rtoes 0
lfemur -8.12356 -8.14772 -9.73636
ltibia 22.067
lfoot -22.6013 17.2177
ltoes -55.0173
258
root -0.81168 18.7586 5.05584 3.00388 -1.14709 -3.44814
lowerback 4.17305 2.08002 -5.05939
upperback 0.852029 2.49434 -2.97511
thorax -1.54482 1.2596 -0.365955
lowerneck -12.6188 0.243694 0.721409
upperneck 36.6408 -1.07067 3.54925
head 14.8301 0.122973 1.17684
rclavicle -2.0276e-014 6.36111e-015
rhumerus 33.523 56.4688 -28.0543
rradius 91.4669
rwrist 4.76316
rhand -3.47961 -47.7344
rfingers 7.12502
rthumb 22.2536 -76.4732
lclavicle -2.0276e-014 6.36111e-015
lhumerus 8.52608 -46.8558 50.7629
lradius 82.6138
lwrist 43.9969
lhand 1.31451 -25.0466
lfingers 7.12502
lthumb 26.8488 3.06707
rfemur 0 0 0
rtibia 0
rfoot 0 0
rtoes 0
lfemur -8.05072 -8.11395 -9.85624
ltibia 22.0291
lfoot -22.7321 17.3667
ltoes -54.9345
259
root -0.810819 18.7589 5.05667 3.01647 -1.37032 -3.38872
lowerback 4.3134 2.12824 -5.16889
upperback 0.746522 2.53694 -2.96037
thorax -1.73899 1.28557 -0.301189
lowerneck -12.6978 0.279414 0.837379
upperneck 36.7859 -1.06252 3.55828
head 14.9186 0.14568 1.16494
rclavicle 1.47101e-014 -1.43125e-014
rhumerus 33.6412 56.7397 -29.1477
rradius 91.7815
rwrist 4.07178
rhand -6.00606 -46.0926
rfingers 7.12502
rthumb 19.8265 -75.1013
lclavicle 1.47101e-014 -1.43125e-014
lhumerus 8.15383 -46.8802 51.096
lradius 82.7343
lwrist 44.2015
lhand 1.14778 -24.769
lfingers 7.12502
lthumb 26.6893 3.36914
rfemur 0 0 0
rtibia 0
rfoot 0 0
rtoes 0
lfemur -7.95619 -8.15783 -9.95709
ltibia 21.9785
lfoot -22.8802 17.5714
ltoes -54.8007
260
root -0.808198 18.7595 5.06151 3.06579 -1.71312 -3.38686
lowerback 4.37701 2.20926 -5.14869
upperback 0.649264 2.63501 -2.96957
thorax -1.87699 1.33754 -0.333414
lowerneck -12.8075 0.304594 1.04211
upperneck 36.8622 -1.05741 3.46421
head 14.9804 0.165057 1.09215
rclavicle 5.28767e-014 -3.33958e-014
rhumerus 34.4728 57.3867 -29.209
rradius 92.9918
rwrist 1.95646
rhand -7.31718 -43.9147
rfingers 7.12502
rthumb 18.5657 -73.0488
lclavicle 5.28767e-014 -3.33958e-014
lhumerus 7.88778 -46.9432 51.3376
lradius 82.7419
lwrist 44.4421
lhand 0.939233 -24.5995
lfingers 7.12502
lthumb 26.4897 3.5689
rfemur 0 0 0
rtibia 0
rfoot 0 0
rtoes 0
lfemur -7.85705 -8.08816 -10.0004
ltibia 21.9326
lfoot -23.0543 17.7846
ltoes -54.7149
261
root -0.805754 18.7609 5.06404 3.15118 -1.97638 -3.37826
lowerback 4.35393 2.25903 -5.054
upperback 0.607484 2.70449 -3.00361
thorax -1.9035 1.37233 -0.425555
lowerneck -12.8005 0.322983 1.31014
upperneck 36.7365 -1.00996 3.20446
head 14.9147 0.185475 0.940506
rclavicle 5.96354e-016 -4.13472e-014
rhumerus 36.1929 58.3121 -28.0641
rradius 94.7309
rwrist -0.603266
rhand -7.6453 -41.5177
rfingers 7.12502
rthumb 18.2501 -70.6815
lclavicle 5.96354e-016 -4.13472e-014
lhumerus 7.69551 -46.8984 51.4545
lradius 82.6607
lwrist 44.3006
lhand 0.928298 -24.8402
lfingers 7.12502
lthumb 26.4792 3.32977
rfemur 0 0 0
rtibia 0
rfoot 0 0
rtoes 0
lfemur -7.84595 -8.02175 -10.0354
ltibia 21.9071
lfoot -23.2213 17.933
ltoes -54.5728
262
root -0.804045 18.7617 5.06592 3.21452 -2.12854 -3.37879
lowerback 4.36192 2.26285 -4.99296
upperback 0.574072 2.71071 -2.97322
thorax -1.9413 1.37607 -0.429807
lowerneck -12.6932 0.349499 1.42236
upperneck 36.5535 -0.88888 2.91669
head 14.7966 0.210312 0.815794
rclavicle -7.7526e-015 -2.22639e-014
rhumerus 38.8625 59.5683 -25.5777
rradius 96.7686
rwrist -3.17883
rhand -7.34205 -39.7995
rfingers 7.12502
rthumb 18.5418 -68.9358
lclavicle -7.7526e-015 -2.22639e-014
lhumerus 7.34249 -46.7638 51.6903
lradius 82.656
lwrist 44.131
lhand 0.846728 -25.1441
lfingers 7.12502
lthumb 26.4011 3.03757
rfemur 0 0 0
rtibia 0
rfoot 0 0
rtoes 0
lfemur -7.85553 -8.05334 -10.0542
ltibia 21.9053
lfoot -23.3494 18.0536
ltoes -54.3989
263
root -0.80323 18.7619 5.06835 3.24958 -2.18713 -3.39349
lowerback 4.46783 2.2571 -4.99604
upperback 0.511942 2.69334 -2.89123
thorax -2.06834 1.37032 -0.349012
lowerneck -12.6345 0.380898 1.3908
upperneck 36.5021 -0.761404 2.73324
head 14.7543 0.234541 0.764249
rclavicle -9.93923e-015 1.43125e-014
rhumerus 41.9938 60.8775 -22.2124
rradius 98.9611
rwrist -5.50938
rhand -5.83669 -39.3877
rfingers 7.12502
rthumb 19.9893 -68.3796
lclavicle -9.93923e-015 1.43125e-014
lhumerus 6.9421 -46.6921 52.0085
lradius 82.6978
lwrist 44.1322
lhand 0.754124 -25.2043
lfingers 7.12502
lthumb 26.3125 2.99069
rfemur 0 0 0
rtibia 0
rfoot 0 0
rtoes 0
lfemur -7.87782 -8.00039 -10.0415
ltibia 21.9277
lfoot -23.3282 18.0547
ltoes -54.3877
264
root -0.801724 18.7621 5.07041 3.26428 -2.12455 -3.40484
lowerback 4.53385 2.24692 -4.88698
upperback 0.506295 2.67987 -2.9061
thorax -2.105 1.36338 -0.426829
lowerneck -12.6408 0.406424 1.3598
upperneck 36.5174 -0.717982 2.74587
head 14.7624 0.251029 0.782291
rclavicle 2.18663e-014 1.90833e-014
rhumerus 44.9658 61.9142 -18.731
rradius 101.086
rwrist -7.64723
rhand -4.03159 -39.7377
rfingers 7.12502
rthumb 21.7236 -68.5388
lclavicle 2.18663e-014 1.90833e-014
lhumerus 6.91925 -46.729 51.9757
lradius 82.6716
lwrist 44.1235
lhand 0.887756 -25.2586
lfingers 7.12502
lthumb 26.4404 2.91723
rfemur 0 0 0
rtibia 0
rfoot 0 0
rtoes 0
lfemur -7.93573 -7.8521 -10.0155
ltibia 21.9661
lfoot -23.2155 17.9153
ltoes -54.4775
